<?xml version="1.0" standalone="no"?>
<!DOCTYPE svg PUBLIC "-//W3C//DTD SVG 20010904//EN"
 "http://www.w3.org/TR/2001/REC-SVG-20010904/DTD/svg10.dtd">
<svg version="1.0" xmlns="http://www.w3.org/2000/svg"
 width="1135.000000pt" height="196.000000pt" viewBox="0 0 1135.000000 196.000000"
 preserveAspectRatio="xMidYMid meet">

<g transform="translate(0.000000,196.000000) scale(0.100000,-0.100000)"
fill="current" stroke="none">
<path d="M8288 1870 c-307 -49 -543 -229 -656 -503 -83 -200 -86 -473 -8 -681
90 -238 296 -424 553 -498 67 -20 101 -23 243 -22 184 0 241 11 366 69 204 93
356 259 433 471 42 115 55 212 48 362 -7 153 -23 216 -87 347 -54 112 -133
213 -218 281 -76 60 -218 129 -317 154 -92 24 -271 33 -357 20z m305 -71 c240
-48 438 -200 538 -414 63 -134 74 -189 74 -370 0 -140 -3 -169 -23 -235 -84
-268 -269 -455 -527 -531 -155 -46 -398 -35 -548 26 -249 100 -432 333 -470
600 -19 133 -6 310 31 417 101 290 324 471 642 521 69 11 191 5 283 -14z"/>
<path d="M8294 1731 c-278 -45 -495 -239 -570 -512 -25 -90 -26 -309 -1 -399
54 -198 183 -358 357 -444 128 -63 211 -79 370 -73 98 4 142 10 205 31 366
118 557 493 455 892 -61 238 -249 424 -495 489 -70 19 -248 27 -321 16z m321
-77 c86 -23 184 -77 253 -140 271 -245 281 -713 21 -973 -119 -118 -249 -171
-434 -178 -143 -6 -235 11 -340 60 -320 153 -449 564 -284 906 81 168 244 294
434 335 86 19 262 14 350 -10z"/>
<path d="M8252 1580 c-187 -49 -327 -184 -388 -374 -33 -102 -37 -254 -10
-356 57 -212 221 -372 423 -410 93 -18 274 -9 352 19 231 81 371 290 371 554
0 288 -174 517 -435 572 -96 20 -224 18 -313 -5z m307 -55 c232 -55 381 -254
381 -510 0 -254 -143 -452 -367 -510 -73 -19 -233 -19 -306 0 -123 32 -232
113 -296 219 -93 155 -98 384 -13 555 56 114 204 225 332 250 72 14 200 12
269 -4z"/>
<path d="M4320 1000 l0 -830 30 0 30 0 0 830 0 830 -30 0 -30 0 0 -830z"/>
<path d="M4450 1000 l0 -830 29 0 c17 0 31 6 35 16 8 20 8 1608 0 1628 -4 10
-18 16 -35 16 l-29 0 0 -830z"/>
<path d="M4590 1000 l0 -830 30 0 30 0 0 830 0 830 -30 0 -30 0 0 -830z"/>
<path d="M4728 1824 c-5 -4 -8 -17 -8 -29 0 -22 3 -22 183 -28 321 -10 475
-70 644 -250 210 -226 258 -572 118 -862 -76 -157 -183 -264 -340 -341 -124
-61 -206 -77 -418 -82 l-188 -4 3 -26 3 -27 190 1 c161 1 202 4 271 22 172 46
287 114 407 242 89 94 154 214 188 345 30 115 30 309 0 423 -66 253 -220 436
-456 543 -116 53 -211 70 -410 76 -99 3 -183 2 -187 -3z"/>
<path d="M140 1808 c0 -6 80 -248 177 -537 97 -289 220 -654 273 -811 l96
-285 32 -3 c18 -2 32 -2 32 0 0 2 -102 305 -226 673 -124 369 -248 739 -276
823 -49 149 -51 152 -79 152 -16 0 -29 -5 -29 -12z"/>
<path d="M280 1814 c0 -4 27 -86 59 -183 33 -97 144 -426 246 -731 271 -805
242 -730 276 -730 16 0 29 3 29 8 0 4 -113 343 -251 752 -138 410 -260 777
-273 815 -21 66 -24 70 -54 73 -18 2 -32 0 -32 -4z"/>
<path d="M434 1778 c13 -41 229 -685 442 -1315 l99 -293 32 0 32 0 -275 816
c-151 449 -277 820 -280 825 -3 5 -18 9 -34 9 l-29 0 13 -42z"/>
<path d="M1081 1307 c-181 -541 -174 -512 -145 -587 5 -12 374 1066 374 1092
0 4 -13 8 -29 8 l-29 0 -171 -513z"/>
<path d="M1187 1201 c-192 -574 -206 -621 -196 -652 7 -19 15 -38 19 -42 7 -8
440 1272 440 1301 0 6 -12 12 -28 12 l-27 0 -208 -619z"/>
<path d="M1535 1808 c-3 -7 -113 -334 -244 -727 l-239 -715 16 -42 c9 -24 17
-42 18 -41 3 2 514 1529 514 1533 0 11 -61 2 -65 -8z"/>
<path d="M1730 995 l0 -825 30 0 30 0 0 825 0 825 -30 0 -30 0 0 -825z"/>
<path d="M1860 995 l0 -826 33 3 32 3 0 820 0 820 -32 3 -33 3 0 -826z"/>
<path d="M2000 995 l0 -825 30 0 30 0 0 825 0 825 -30 0 -30 0 0 -825z"/>
<path d="M2193 1798 c3 -13 126 -383 275 -823 l269 -800 32 -3 c17 -2 31 -1
31 2 0 5 -211 633 -449 1341 -56 164 -101 300 -101 302 0 2 -14 3 -31 3 -27 0
-31 -3 -26 -22z"/>
<path d="M2330 1818 c0 -2 113 -339 251 -748 138 -410 262 -780 275 -823 24
-73 26 -77 54 -77 17 0 30 5 30 10 0 10 -186 567 -444 1330 l-103 305 -31 3
c-18 2 -32 2 -32 0z"/>
<path d="M2480 1808 c0 -7 102 -314 226 -683 124 -369 246 -733 272 -810 l47
-140 34 -3 c29 -3 33 -1 27 14 -4 10 -87 257 -185 549 -396 1176 -362 1085
-393 1085 -16 0 -28 -6 -28 -12z"/>
<path d="M3132 1306 l-172 -514 18 -42 18 -42 182 545 c100 300 182 550 182
556 0 6 -13 11 -29 11 l-28 0 -171 -514z"/>
<path d="M3439 1793 c-6 -16 -99 -291 -206 -612 -187 -556 -196 -585 -187
-630 5 -25 13 -45 18 -44 7 1 444 1288 446 1311 0 1 -14 2 -30 2 -24 0 -33 -6
-41 -27z"/>
<path d="M3579 1783 c-8 -21 -118 -346 -244 -723 l-229 -685 13 -48 c8 -26 15
-46 17 -44 5 4 514 1520 514 1530 0 4 -13 7 -28 7 -24 0 -31 -6 -43 -37z"/>
<path d="M3780 995 l0 -825 30 0 30 0 0 825 0 825 -30 0 -30 0 0 -825z"/>
<path d="M3920 995 l0 -825 30 0 30 0 0 825 0 825 -30 0 -30 0 0 -825z"/>
<path d="M4050 995 l0 -825 30 0 30 0 0 825 0 825 -30 0 -30 0 0 -825z"/>
<path d="M5970 995 l0 -825 30 0 30 0 0 825 0 825 -30 0 -30 0 0 -825z"/>
<path d="M6110 995 l0 -825 30 0 30 0 0 825 0 825 -30 0 -30 0 0 -825z"/>
<path d="M6240 995 l0 -825 30 0 30 0 0 825 0 825 -30 0 -30 0 0 -825z"/>
<path d="M7070 995 l0 -825 30 0 30 0 0 825 0 825 -30 0 -30 0 0 -825z"/>
<path d="M7200 995 l0 -825 30 0 30 0 0 825 0 825 -30 0 -30 0 0 -825z"/>
<path d="M7340 995 l0 -825 30 0 30 0 0 825 0 825 -30 0 -30 0 0 -825z"/>
<path d="M9320 1815 c0 -5 380 -1528 401 -1607 8 -33 14 -38 39 -38 17 0 30 3
30 6 0 4 -374 1504 -401 1607 -9 32 -14 37 -39 37 -17 0 -30 -2 -30 -5z"/>
<path d="M9460 1813 c0 -6 369 -1485 401 -1605 9 -33 14 -38 39 -38 17 0 30 2
30 5 0 4 -355 1428 -401 1608 -9 32 -14 37 -39 37 -17 0 -30 -3 -30 -7z"/>
<path d="M9600 1811 c0 -7 368 -1478 401 -1603 8 -33 14 -38 39 -38 17 0 30 2
30 5 0 2 -92 371 -205 819 -113 448 -205 817 -205 820 0 4 -13 6 -30 6 -16 0
-30 -4 -30 -9z"/>
<path d="M10044 1415 c-95 -378 -101 -408 -91 -455 5 -27 14 -50 18 -50 5 0 9
3 9 6 0 3 50 202 110 443 61 240 110 442 110 449 0 7 -12 12 -28 12 l-27 0
-101 -405z"/>
<path d="M10146 1271 c-130 -519 -137 -552 -126 -593 7 -24 15 -47 18 -52 5
-9 301 1151 302 1182 0 7 -12 12 -28 12 l-29 0 -137 -549z"/>
<path d="M10377 1638 c-25 -101 -102 -409 -172 -686 -116 -461 -125 -505 -115
-540 19 -63 20 -65 25 -61 5 5 365 1443 365 1458 0 6 -13 11 -29 11 l-29 0
-45 -182z"/>
<path d="M10783 1415 c-89 -354 -100 -410 -92 -443 14 -53 19 -65 23 -61 6 6
226 876 226 894 0 10 -10 15 -27 15 l-28 0 -102 -405z"/>
<path d="M10892 1288 c-73 -293 -132 -544 -132 -558 0 -14 5 -43 11 -65 10
-34 13 -37 20 -20 10 25 289 1146 289 1163 0 7 -12 12 -28 12 l-27 0 -133
-532z"/>
<path d="M10993 1140 c-159 -634 -170 -684 -161 -728 15 -70 24 -71 41 0 8 34
89 361 181 724 91 364 166 667 166 673 0 6 -13 11 -28 11 l-28 0 -171 -680z"/>
<path d="M4728 1684 c-5 -4 -8 -17 -8 -30 0 -22 2 -22 183 -27 125 -3 201 -9
242 -21 208 -57 367 -205 432 -401 23 -70 27 -96 27 -205 0 -109 -4 -135 -27
-205 -63 -190 -203 -327 -402 -392 -72 -24 -99 -27 -268 -31 l-188 -4 3 -27 3
-26 145 -3 c80 -1 176 2 214 8 263 41 463 204 550 449 28 80 30 96 31 226 0
154 -11 208 -67 320 -83 169 -245 297 -443 351 -65 18 -414 33 -427 18z"/>
<path d="M6380 1646 c0 -42 14 -64 231 -373 128 -180 264 -373 303 -428 l71
-100 3 47 c3 52 41 -5 -423 653 -51 72 -109 156 -131 187 -21 32 -42 57 -46
58 -5 0 -8 -20 -8 -44z"/>
<path d="M4727 1543 c-4 -3 -7 -17 -7 -30 l0 -23 153 0 c242 0 355 -38 468
-157 88 -93 129 -202 129 -345 0 -184 -100 -353 -255 -431 -86 -43 -129 -50
-310 -56 l-180 -6 -3 -28 -3 -27 158 0 c261 0 371 37 499 164 77 77 123 159
143 254 16 75 14 218 -4 285 -52 198 -213 348 -420 392 -71 15 -355 21 -368 8z"/>
<path d="M6380 1414 c0 -50 -9 -36 280 -444 72 -102 172 -245 223 -317 51 -73
95 -133 100 -133 4 0 7 19 7 43 0 31 -8 54 -28 83 -16 21 -151 213 -301 427
-150 213 -275 387 -277 387 -2 0 -4 -21 -4 -46z"/>
<path d="M10466 1409 l-16 -53 71 -281 c39 -154 88 -345 109 -425 20 -80 56
-220 80 -312 43 -168 43 -168 72 -168 15 0 28 4 28 8 0 5 -25 107 -55 228
-181 716 -267 1049 -270 1052 -2 2 -11 -20 -19 -49z"/>
<path d="M6380 1176 c0 -42 16 -67 291 -458 160 -227 297 -420 305 -428 12
-12 14 -8 14 33 0 46 -8 59 -227 370 -125 177 -259 368 -298 424 -38 56 -73
102 -77 103 -5 0 -8 -20 -8 -44z"/>
<path d="M10407 1173 c-4 -6 -10 -32 -13 -58 -6 -38 12 -119 107 -495 l114
-450 28 0 c17 0 27 5 27 15 0 8 -15 75 -34 148 -19 72 -73 285 -121 472 -92
366 -98 385 -108 368z"/>
<path d="M10326 867 c-16 -55 -16 -55 25 -213 133 -516 121 -479 152 -482 20
-2 27 1 27 13 0 17 -179 727 -185 733 -2 2 -10 -21 -19 -51z"/>
</g>
</svg>
